<svg width="112" height="62" viewBox="0 0 112 62" fill="none" xmlns="http://www.w3.org/2000/svg">
<g clip-path="url(#clip0_85_11569)">
<path d="M56 9.62354C65.3776 9.62354 72.9798 17.2257 72.9798 26.6033C72.9798 35.9809 65.3776 43.583 56 43.583C46.6224 43.583 39.0202 35.9809 39.0202 26.6033C39.0202 17.2257 46.6224 9.62354 56 9.62354ZM55.9978 36.3572C61.3817 36.3572 65.7473 31.9917 65.7473 26.6077C65.7473 21.2238 61.3817 16.8582 55.9978 16.8582C50.6138 16.8582 46.2483 21.2238 46.2483 26.6077C46.2483 31.9917 50.6138 36.3572 55.9978 36.3572Z" fill="#00ACEC"></path>
<path d="M95.432 43.5783C104.473 43.3636 111.832 35.9651 111.998 26.9217C112.113 20.7076 108.887 15.2396 103.997 12.1912C101.662 10.7345 98.6331 12.386 98.6331 15.14V15.4278C98.6331 16.6387 99.2729 17.7434 100.291 18.3987C103.074 20.1896 104.887 23.3575 104.765 26.9395C104.588 32.1396 100.262 36.3281 95.0601 36.3481C89.6584 36.368 85.2751 31.9957 85.2751 26.5985C85.2751 23.1428 87.0749 20.1099 89.7846 18.3787C90.8074 17.7257 91.4073 16.5767 91.4073 15.3636C91.4073 12.51 88.2482 10.7722 85.8463 12.3152C81.1508 15.3348 78.0405 20.6058 78.0405 26.603C78.0405 36.1178 85.8662 43.8041 95.432 43.5783Z" fill="#00ACEC"></path>
<path d="M29.8684 7.88773C32.0468 7.88773 33.8134 6.12113 33.8134 3.94276C33.8134 1.76439 32.0468 0 29.8684 0C27.6901 0 25.9235 1.7666 25.9235 3.94497C25.9235 6.12334 27.6901 7.88994 29.8684 7.88994V7.88773Z" fill="#0D1350"></path>
<path d="M29.7268 37.8161C32.3612 34.8253 33.9617 30.9025 33.9617 26.6033C33.9617 17.2257 26.3596 9.62354 16.982 9.62354C7.60436 9.62354 0 17.2257 0 26.6033C0 35.9809 7.60215 43.583 16.9798 43.583C17.1989 43.583 17.4159 43.5742 17.6328 43.5676H24.945C25.9877 43.5676 26.8422 44.4221 26.8422 45.4648C26.8422 46.6027 25.9877 47.4572 24.945 47.4572H9.20272C4.1907 47.4572 0.0265655 51.5128 0 56.6134V57.6827C0 59.6463 1.59171 61.2402 3.55756 61.2402C5.52119 61.2402 7.11512 59.6485 7.11512 57.6827V56.6134C7.14168 55.4999 7.98292 54.6675 9.01233 54.6675H24.7546C29.7821 54.6675 33.9573 50.5875 33.9573 45.4648C33.9573 42.2592 32.2593 39.4388 29.7245 37.8161H29.7268ZM7.22802 26.6077C7.22802 21.2238 11.5936 16.8582 16.9775 16.8582C22.3615 16.8582 26.7271 21.2238 26.7271 26.6077C26.7271 31.9917 22.3615 36.3572 16.9775 36.3572C11.5936 36.3572 7.22802 31.9917 7.22802 26.6077Z" fill="#00ACEC"></path>
<path d="M46.0225 48.2387C46.7707 48.9493 47.1449 49.9256 47.1449 51.1697C47.1449 52.4139 46.7707 53.3924 46.0225 54.1008C45.2742 54.8114 44.247 55.1656 42.9431 55.1656H40.4526V58.639H39.0136V47.1738H42.9431C44.247 47.1738 45.2742 47.528 46.0225 48.2387ZM44.9864 53.078C45.4668 52.6352 45.7059 51.9999 45.7059 51.1697C45.7059 50.3395 45.4668 49.7042 44.9864 49.2614C44.506 48.8187 43.8109 48.5973 42.8988 48.5973H40.4526V53.7399H42.8988C43.8109 53.7399 44.506 53.5185 44.9864 53.0758V53.078Z" fill="#0D1350"></path>
<path d="M55.938 49.9589V58.6392H54.6142V57.2622C54.3065 57.7426 53.9191 58.1079 53.4475 58.3602C52.9782 58.6126 52.4602 58.7366 51.8934 58.7366C51.154 58.7366 50.4921 58.5506 49.9077 58.1787C49.3232 57.8068 48.865 57.2865 48.5329 56.6135C48.2008 55.9428 48.037 55.1702 48.037 54.2957C48.037 53.4213 48.203 52.6531 48.5329 51.9867C48.865 51.3204 49.321 50.8024 49.9077 50.4304C50.4921 50.0585 51.154 49.8726 51.8934 49.8726C52.4402 49.8726 52.945 49.9899 53.4055 50.2246C53.8659 50.4592 54.2489 50.8068 54.5566 51.265V49.9545H55.938V49.9589ZM53.3191 56.9766C53.7132 56.7198 54.0187 56.359 54.2401 55.8963C54.4614 55.4314 54.5721 54.9001 54.5721 54.3001C54.5721 53.7002 54.4614 53.1667 54.2401 52.704C54.0187 52.2391 53.7132 51.8827 53.3191 51.6303C52.9251 51.3801 52.4889 51.254 52.0086 51.254C51.5282 51.254 51.081 51.3801 50.6913 51.6303C50.3017 51.8827 49.9962 52.2391 49.7704 52.704C49.5446 53.1689 49.4317 53.7002 49.4317 54.3001C49.4317 54.9001 49.5446 55.4336 49.7704 55.8963C49.9962 56.3612 50.3039 56.7198 50.6913 56.9766C51.0788 57.2334 51.5193 57.3618 52.0086 57.3618C52.4978 57.3618 52.9251 57.2334 53.3191 56.9766Z" fill="#0D1350"></path>
<path d="M65.019 49.959L61.3197 59.5093C60.9943 60.3948 60.6113 61.0169 60.1752 61.3777C59.7391 61.7386 59.2122 61.9179 58.599 61.9179C58.2249 61.9179 57.8618 61.8492 57.512 61.7142C57.1622 61.5769 56.8722 61.3777 56.642 61.1165L57.2331 59.9365C57.6271 60.3616 58.081 60.5763 58.6012 60.5763C58.9377 60.5763 59.2166 60.4745 59.4424 60.273C59.6682 60.0716 59.8719 59.724 60.0534 59.2325L60.2992 58.626L56.932 49.9612H58.371L61.0342 56.9059L63.6686 49.9612H65.0212L65.019 49.959Z" fill="#0D1350"></path>
<path d="M78.0515 50.5965C78.6227 51.2517 78.9083 52.2391 78.9083 53.5607V58.6392H76.1743V54.0699C76.1743 53.4478 76.0702 52.9896 75.8643 52.6929C75.6584 52.3985 75.3684 52.2502 74.9943 52.2502C74.5825 52.2502 74.2505 52.414 74.0003 52.7416C73.7502 53.0693 73.6262 53.5652 73.6262 54.2315V58.6369H70.8922V54.0677C70.8922 52.8545 70.4981 52.2502 69.7122 52.2502C69.2894 52.2502 68.9551 52.414 68.7049 52.7416C68.4548 53.0693 68.3308 53.5652 68.3308 54.2315V58.6369H65.5968V49.7597H68.2024V50.6939C68.4902 50.333 68.8333 50.0629 69.2318 49.8836C69.6303 49.7043 70.0642 49.6135 70.5335 49.6135C71.0803 49.6135 71.5696 49.7287 72.0013 49.9567C72.4329 50.1869 72.7827 50.5345 73.0528 51.0038C73.3605 50.5566 73.7479 50.2113 74.2195 49.9722C74.6888 49.7331 75.2024 49.6113 75.7603 49.6113C76.7188 49.6113 77.4848 49.939 78.056 50.5942L78.0515 50.5965Z" fill="#0D1350"></path>
<path d="M88.3899 54.9864H82.7204C82.8355 55.4446 83.0591 55.7966 83.389 56.0424C83.7188 56.2881 84.135 56.4121 84.6331 56.4121C85.0073 56.4121 85.3305 56.3523 85.605 56.2327C85.8795 56.1132 86.154 55.9162 86.4329 55.6439L87.8719 57.3463C87.1148 58.3071 86.0057 58.7874 84.5468 58.7874C83.6347 58.7874 82.8333 58.5904 82.1426 58.1986C81.4519 57.8045 80.9162 57.2599 80.5376 56.5604C80.1591 55.8608 79.9687 55.0705 79.9687 54.185C79.9687 53.2995 80.1524 52.5291 80.5221 51.8339C80.8918 51.141 81.4032 50.5964 82.0541 50.2046C82.7071 49.8105 83.4399 49.6157 84.2568 49.6157C85.0737 49.6157 85.74 49.7995 86.3732 50.1647C87.0063 50.53 87.5066 51.0591 87.8763 51.7542C88.246 52.4472 88.4298 53.2685 88.4298 54.2204C88.4298 54.2425 88.4143 54.4993 88.3855 54.9908L88.3899 54.9864ZM83.2163 52.2346C82.9329 52.5069 82.7536 52.8788 82.6761 53.3482H85.8707C85.7932 52.8788 85.6139 52.5069 85.3305 52.2346C85.0471 51.9623 84.6951 51.8251 84.2723 51.8251C83.8495 51.8251 83.4975 51.9623 83.2141 52.2346H83.2163Z" fill="#0D1350"></path>
<path d="M96.8311 50.5962C97.4222 51.2515 97.7166 52.2388 97.7166 53.5604V58.6389H94.9826V54.0696C94.9826 52.8564 94.5553 52.2521 93.7008 52.2521C93.2315 52.2521 92.8529 52.427 92.5718 52.7767C92.2884 53.1265 92.1467 53.6512 92.1467 54.3485V58.6411H89.4127V49.7638H92.0183V50.7312C92.3261 50.3704 92.6891 50.0959 93.112 49.9033C93.5348 49.7129 93.9953 49.6177 94.4934 49.6177C95.463 49.6177 96.2423 49.9453 96.8311 50.6006V50.5962Z" fill="#0D1350"></path>
<path d="M104.524 58.2805C104.294 58.4444 104.013 58.5705 103.683 58.6569C103.351 58.7432 102.999 58.7875 102.625 58.7875C101.608 58.7875 100.825 58.5041 100.278 57.9352C99.7312 57.3685 99.4567 56.5206 99.4567 55.396V52.414H98.3188V50.0873H99.4567V47.7783H102.191V50.0873H103.975V52.414H102.191V55.3628C102.191 55.6793 102.264 55.9273 102.414 56.1088C102.563 56.2881 102.762 56.3789 103.012 56.3789C103.329 56.3789 103.608 56.2859 103.847 56.1L104.522 58.2783L104.524 58.2805Z" fill="#0D1350"></path>
<path d="M106.193 58.5329C105.56 58.3646 105.051 58.1432 104.668 57.8687L105.489 55.7391C105.843 55.9914 106.266 56.1885 106.756 56.3368C107.245 56.4851 107.73 56.5582 108.21 56.5582C108.651 56.5582 108.965 56.5072 109.153 56.4032C109.341 56.2992 109.434 56.1486 109.434 55.9538C109.434 55.759 109.321 55.6173 109.096 55.5354C108.87 55.4535 108.513 55.3738 108.024 55.2985C107.4 55.2122 106.871 55.0971 106.435 54.9554C105.998 54.8137 105.622 54.5525 105.306 54.1695C104.989 53.7865 104.83 53.253 104.83 52.5645C104.83 51.9978 104.978 51.4908 105.277 51.0503C105.573 50.6075 106.007 50.2577 106.578 50.0009C107.15 49.7441 107.834 49.6157 108.628 49.6157C109.195 49.6157 109.755 49.6821 110.313 49.8127C110.869 49.9434 111.336 50.1293 111.71 50.3706L110.889 52.4826C110.198 52.0465 109.45 51.8273 108.644 51.8273C108.212 51.8273 107.896 51.8849 107.694 52C107.493 52.1151 107.391 52.2656 107.391 52.4494C107.391 52.6575 107.502 52.8014 107.723 52.8833C107.944 52.9652 108.307 53.0493 108.817 53.1379C109.459 53.2463 109.992 53.3725 110.415 53.5142C110.838 53.6559 111.203 53.9149 111.515 54.2912C111.827 54.6676 111.982 55.1945 111.982 55.8719C111.982 56.4298 111.834 56.9279 111.535 57.3706C111.238 57.8134 110.798 58.1587 110.218 58.4111C109.638 58.6613 108.938 58.7874 108.124 58.7874C107.471 58.7874 106.829 58.7033 106.195 58.5329H106.193Z" fill="#0D1350"></path>
</g>
<defs>
<clipPath id="clip0_85_11569">
<rect width="112" height="61.9152" fill="white"></rect>
</clipPath>
</defs>
</svg>