<svg width="506" height="280" viewBox="0 0 506 280" fill="none" xmlns="http://www.w3.org/2000/svg">
<g clip-path="url(#clip0_7_111)">
<path d="M252.96 43.47C295.32 43.47 329.66 77.81 329.66 120.17C329.66 162.53 295.32 196.87 252.96 196.87C210.6 196.87 176.26 162.53 176.26 120.17C176.26 77.81 210.6 43.47 252.96 43.47ZM252.95 164.23C277.27 164.23 296.99 144.51 296.99 120.19C296.99 95.87 277.27 76.15 252.95 76.15C228.63 76.15 208.91 95.87 208.91 120.19C208.91 144.51 228.63 164.23 252.95 164.23Z" fill="#00ACEC"></path>
<path d="M431.08 196.85C471.92 195.88 505.16 162.46 505.91 121.61C506.43 93.5401 491.86 68.8401 469.77 55.0701C459.22 48.4901 445.54 55.9501 445.54 68.3901V69.6901C445.54 75.1601 448.43 80.1501 453.03 83.1101C465.6 91.2001 473.79 105.51 473.24 121.69C472.44 145.18 452.9 164.1 429.4 164.19C405 164.28 385.2 144.53 385.2 120.15C385.2 104.54 393.33 90.8401 405.57 83.0201C410.19 80.0701 412.9 74.8801 412.9 69.4001C412.9 56.5101 398.63 48.6601 387.78 55.6301C366.57 69.2701 352.52 93.0801 352.52 120.17C352.52 163.15 387.87 197.87 431.08 196.85Z" fill="#00ACEC"></path>
<path d="M134.92 35.63C144.76 35.63 152.74 27.65 152.74 17.81C152.74 7.97 144.76 0 134.92 0C125.08 0 117.1 7.98 117.1 17.82C117.1 27.66 125.08 35.64 134.92 35.64V35.63Z" fill="black"></path>
<path d="M134.28 170.82C146.18 157.31 153.41 139.59 153.41 120.17C153.41 77.81 119.07 43.47 76.71 43.47C34.35 43.47 0 77.81 0 120.17C0 162.53 34.34 196.87 76.7 196.87C77.69 196.87 78.67 196.83 79.65 196.8H112.68C117.39 196.8 121.25 200.66 121.25 205.37C121.25 210.51 117.39 214.37 112.68 214.37H41.57C18.93 214.37 0.12 232.69 0 255.73V260.56C0 269.43 7.19 276.63 16.07 276.63C24.94 276.63 32.14 269.44 32.14 260.56V255.73C32.26 250.7 36.06 246.94 40.71 246.94H111.82C134.53 246.94 153.39 228.51 153.39 205.37C153.39 190.89 145.72 178.15 134.27 170.82H134.28ZM32.65 120.19C32.65 95.87 52.37 76.15 76.69 76.15C101.01 76.15 120.73 95.87 120.73 120.19C120.73 144.51 101.01 164.23 76.69 164.23C52.37 164.23 32.65 144.51 32.65 120.19Z" fill="#00ACEC"></path>
<path d="M207.89 217.9C211.27 221.11 212.96 225.52 212.96 231.14C212.96 236.76 211.27 241.18 207.89 244.38C204.51 247.59 199.87 249.19 193.98 249.19H182.73V264.88H176.23V213.09H193.98C199.87 213.09 204.51 214.69 207.89 217.9ZM203.21 239.76C205.38 237.76 206.46 234.89 206.46 231.14C206.46 227.39 205.38 224.52 203.21 222.52C201.04 220.52 197.9 219.52 193.78 219.52H182.73V242.75H193.78C197.9 242.75 201.04 241.75 203.21 239.75V239.76Z" fill="#000105"></path>
<path d="M252.68 225.67V264.88H246.7V258.66C245.31 260.83 243.56 262.48 241.43 263.62C239.31 264.76 236.97 265.32 234.41 265.32C231.07 265.32 228.08 264.48 225.44 262.8C222.8 261.12 220.73 258.77 219.23 255.73C217.73 252.7 216.99 249.21 216.99 245.26C216.99 241.31 217.74 237.84 219.23 234.83C220.73 231.82 222.79 229.48 225.44 227.8C228.08 226.12 231.07 225.28 234.41 225.28C236.88 225.28 239.16 225.81 241.24 226.87C243.32 227.93 245.05 229.5 246.44 231.57V225.65H252.68V225.67ZM240.85 257.37C242.63 256.21 244.01 254.58 245.01 252.49C246.01 250.39 246.51 247.99 246.51 245.28C246.51 242.57 246.01 240.16 245.01 238.07C244.01 235.97 242.63 234.36 240.85 233.22C239.07 232.09 237.1 231.52 234.93 231.52C232.76 231.52 230.74 232.09 228.98 233.22C227.22 234.36 225.84 235.97 224.82 238.07C223.8 240.17 223.29 242.57 223.29 245.28C223.29 247.99 223.8 250.4 224.82 252.49C225.84 254.59 227.23 256.21 228.98 257.37C230.73 258.53 232.72 259.11 234.93 259.11C237.14 259.11 239.07 258.53 240.85 257.37Z" fill="#000105"></path>
<path d="M293.7 225.67L276.99 268.81C275.52 272.81 273.79 275.62 271.82 277.25C269.85 278.88 267.47 279.69 264.7 279.69C263.01 279.69 261.37 279.38 259.79 278.77C258.21 278.15 256.9 277.25 255.86 276.07L258.53 270.74C260.31 272.66 262.36 273.63 264.71 273.63C266.23 273.63 267.49 273.17 268.51 272.26C269.53 271.35 270.45 269.78 271.27 267.56L272.38 264.82L257.17 225.68H263.67L275.7 257.05L287.6 225.68H293.71L293.7 225.67Z" fill="#000105"></path>
<path d="M352.57 228.55C355.15 231.51 356.44 235.97 356.44 241.94V264.88H344.09V244.24C344.09 241.43 343.62 239.36 342.69 238.02C341.76 236.69 340.45 236.02 338.76 236.02C336.9 236.02 335.4 236.76 334.27 238.24C333.14 239.72 332.58 241.96 332.58 244.97V264.87H320.23V244.23C320.23 238.75 318.45 236.02 314.9 236.02C312.99 236.02 311.48 236.76 310.35 238.24C309.22 239.72 308.66 241.96 308.66 244.97V264.87H296.31V224.77H308.08V228.99C309.38 227.36 310.93 226.14 312.73 225.33C314.53 224.52 316.49 224.11 318.61 224.11C321.08 224.11 323.29 224.63 325.24 225.66C327.19 226.7 328.77 228.27 329.99 230.39C331.38 228.37 333.13 226.81 335.26 225.73C337.38 224.65 339.7 224.1 342.22 224.1C346.55 224.1 350.01 225.58 352.59 228.54L352.57 228.55Z" fill="#000105"></path>
<path d="M399.27 248.38H373.66C374.18 250.45 375.19 252.04 376.68 253.15C378.17 254.26 380.05 254.82 382.3 254.82C383.99 254.82 385.45 254.55 386.69 254.01C387.93 253.47 389.17 252.58 390.43 251.35L396.93 259.04C393.51 263.38 388.5 265.55 381.91 265.55C377.79 265.55 374.17 264.66 371.05 262.89C367.93 261.11 365.51 258.65 363.8 255.49C362.09 252.33 361.23 248.76 361.23 244.76C361.23 240.76 362.06 237.28 363.73 234.14C365.4 231.01 367.71 228.55 370.65 226.78C373.6 225 376.91 224.12 380.6 224.12C384.29 224.12 387.3 224.95 390.16 226.6C393.02 228.25 395.28 230.64 396.95 233.78C398.62 236.91 399.45 240.62 399.45 244.92C399.45 245.02 399.38 246.18 399.25 248.4L399.27 248.38ZM375.9 235.95C374.62 237.18 373.81 238.86 373.46 240.98H387.89C387.54 238.86 386.73 237.18 385.45 235.95C384.17 234.72 382.58 234.1 380.67 234.1C378.76 234.1 377.17 234.72 375.89 235.95H375.9Z" fill="#000105"></path>
<path d="M437.4 228.55C440.07 231.51 441.4 235.97 441.4 241.94V264.88H429.05V244.24C429.05 238.76 427.12 236.03 423.26 236.03C421.14 236.03 419.43 236.82 418.16 238.4C416.88 239.98 416.24 242.35 416.24 245.5V264.89H403.89V224.79H415.66V229.16C417.05 227.53 418.69 226.29 420.6 225.42C422.51 224.56 424.59 224.13 426.84 224.13C431.22 224.13 434.74 225.61 437.4 228.57V228.55Z" fill="#000105"></path>
<path d="M472.15 263.26C471.11 264 469.84 264.57 468.35 264.96C466.85 265.35 465.26 265.55 463.57 265.55C458.98 265.55 455.44 264.27 452.97 261.7C450.5 259.14 449.26 255.31 449.26 250.23V236.76H444.12V226.25H449.26V215.82H461.61V226.25H469.67V236.76H461.61V250.08C461.61 251.51 461.94 252.63 462.62 253.45C463.29 254.26 464.19 254.67 465.32 254.67C466.75 254.67 468.01 254.25 469.09 253.41L472.14 263.25L472.15 263.26Z" fill="#000105"></path>
<path d="M479.69 264.4C476.83 263.64 474.53 262.64 472.8 261.4L476.51 251.78C478.11 252.92 480.02 253.81 482.23 254.48C484.44 255.15 486.63 255.48 488.8 255.48C490.79 255.48 492.21 255.25 493.06 254.78C493.91 254.31 494.33 253.63 494.33 252.75C494.33 251.87 493.82 251.23 492.8 250.86C491.78 250.49 490.17 250.13 487.96 249.79C485.14 249.4 482.75 248.88 480.78 248.24C478.81 247.6 477.11 246.42 475.68 244.69C474.25 242.96 473.53 240.55 473.53 237.44C473.53 234.88 474.2 232.59 475.55 230.6C476.89 228.6 478.85 227.02 481.43 225.86C484.01 224.7 487.1 224.12 490.69 224.12C493.25 224.12 495.78 224.42 498.3 225.01C500.81 225.6 502.92 226.44 504.61 227.53L500.9 237.07C497.78 235.1 494.4 234.11 490.76 234.11C488.81 234.11 487.38 234.37 486.47 234.89C485.56 235.41 485.1 236.09 485.1 236.92C485.1 237.86 485.6 238.51 486.6 238.88C487.6 239.25 489.24 239.63 491.54 240.03C494.44 240.52 496.85 241.09 498.76 241.73C500.67 242.37 502.32 243.54 503.73 245.24C505.14 246.94 505.84 249.32 505.84 252.38C505.84 254.9 505.17 257.15 503.82 259.15C502.48 261.15 500.49 262.71 497.87 263.85C495.25 264.98 492.09 265.55 488.41 265.55C485.46 265.55 482.56 265.17 479.7 264.4H479.69Z" fill="#000105"></path>
</g>
<defs>
<clipPath id="clip0_7_111">
<rect width="505.92" height="279.68" fill="white"></rect>
</clipPath>
</defs>
</svg>